<svg width="20" height="20" viewBox="0 0 20 20" fill="none" xmlns="http://www.w3.org/2000/svg">
<path fill-rule="evenodd" clip-rule="evenodd" d="M2.5 3.125C2.15482 3.125 1.875 3.40482 1.875 3.75C1.875 4.09518 2.15482 4.375 2.5 4.375H17.5C17.8452 4.375 18.125 4.09518 18.125 3.75C18.125 3.40482 17.8452 3.125 17.5 3.125H2.5ZM2.5 7.29166C2.15482 7.29166 1.875 7.57148 1.875 7.91666C1.875 8.26183 2.15482 8.54166 2.5 8.54166H14.1667C14.5118 8.54166 14.7917 8.26183 14.7917 7.91666C14.7917 7.57148 14.5118 7.29166 14.1667 7.29166H2.5ZM1.875 12.0833C1.875 11.7382 2.15482 11.4583 2.5 11.4583H17.5C17.8452 11.4583 18.125 11.7382 18.125 12.0833C18.125 12.4285 17.8452 12.7083 17.5 12.7083H2.5C2.15482 12.7083 1.875 12.4285 1.875 12.0833ZM2.5 15.625C2.15482 15.625 1.875 15.9048 1.875 16.25C1.875 16.5952 2.15482 16.875 2.5 16.875H14.1667C14.5118 16.875 14.7917 16.5952 14.7917 16.25C14.7917 15.9048 14.5118 15.625 14.1667 15.625H2.5Z" fill="black"/>
</svg>
