<svg width="20" height="20" viewBox="0 0 20 20" fill="none" xmlns="http://www.w3.org/2000/svg">
<path fill-rule="evenodd" clip-rule="evenodd" d="M2.70834 1.66669C2.70834 1.32151 2.98817 1.04169 3.33334 1.04169H12.9167C13.0991 1.04169 13.2725 1.12141 13.3912 1.25994L17.1412 5.63494C17.2383 5.74822 17.2917 5.89249 17.2917 6.04169V18.3334C17.2917 18.6785 17.0119 18.9584 16.6667 18.9584H3.33334C2.98817 18.9584 2.70834 18.6785 2.70834 18.3334V1.66669ZM3.95834 2.29169V17.7084H16.0417V6.27289L12.6292 2.29169H3.95834ZM13.8935 5.55613C14.0466 5.8655 13.9199 6.2404 13.6105 6.39348L11.4583 7.45837V13.125C11.4583 13.1256 11.4583 13.1263 11.4583 13.127C11.4572 14.7369 10.1518 16.0416 8.54167 16.0416C6.93084 16.0416 5.62501 14.7358 5.62501 13.125C5.62501 11.5141 6.93084 10.2083 8.54167 10.2083C9.16136 10.2083 9.73591 10.4016 10.2083 10.7311V7.0703C10.2083 6.83263 10.3431 6.61553 10.5562 6.51012L13.0562 5.27312C13.3655 5.12004 13.7404 5.24675 13.8935 5.55613ZM6.87501 13.125C6.87501 12.2045 7.6212 11.4583 8.54167 11.4583C9.46215 11.4583 10.2083 12.2045 10.2083 13.125C10.2083 14.0454 9.46215 14.7916 8.54167 14.7916C7.6212 14.7916 6.87501 14.0454 6.87501 13.125Z" fill="#333333"/>
</svg>
