<svg width="20" height="20" viewBox="0 0 20 20" fill="none" xmlns="http://www.w3.org/2000/svg">
<path fill-rule="evenodd" clip-rule="evenodd" d="M1.04166 4.16675C1.04166 3.82157 1.32148 3.54175 1.66666 3.54175H10.8333C11.1785 3.54175 11.4583 3.82157 11.4583 4.16675V7.50008C11.4583 7.84526 11.1785 8.12508 10.8333 8.12508H1.66666C1.32148 8.12508 1.04166 7.84526 1.04166 7.50008V4.16675ZM2.29166 4.79175V6.87508H10.2083V4.79175H2.29166ZM13.7247 3.72481C13.9688 3.48073 14.3645 3.48073 14.6086 3.72481L15.8333 4.94953L17.058 3.72481C17.3021 3.48073 17.6979 3.48073 17.9419 3.72481C18.186 3.96888 18.186 4.36461 17.9419 4.60869L16.7172 5.83341L17.9419 7.05814C18.186 7.30222 18.186 7.69795 17.9419 7.94202C17.6979 8.1861 17.3021 8.1861 17.058 7.94202L15.8333 6.7173L14.6086 7.94202C14.3645 8.1861 13.9688 8.1861 13.7247 7.94202C13.4806 7.69795 13.4806 7.30222 13.7247 7.05814L14.9494 5.83341L13.7247 4.60869C13.4806 4.36461 13.4806 3.96888 13.7247 3.72481ZM18.8037 12.9116C19.031 12.6519 19.0047 12.257 18.7449 12.0297C18.4851 11.8024 18.0903 11.8287 17.863 12.0885L15.3862 14.9191L14.1919 13.7248C13.9479 13.4807 13.5521 13.4807 13.3081 13.7248C13.064 13.9689 13.064 14.3646 13.3081 14.6087L14.9747 16.2753C15.097 16.3977 15.2646 16.4638 15.4375 16.4581C15.6103 16.4523 15.7731 16.3751 15.887 16.245L18.8037 12.9116ZM1.66666 11.8751C1.32148 11.8751 1.04166 12.1549 1.04166 12.5001V15.8334C1.04166 16.1786 1.32148 16.4584 1.66666 16.4584H10.8333C11.1785 16.4584 11.4583 16.1786 11.4583 15.8334V12.5001C11.4583 12.1549 11.1785 11.8751 10.8333 11.8751H1.66666ZM2.29166 15.2084V13.1251H10.2083V15.2084H2.29166Z" fill="#333333"/>
</svg>
