<svg width="20" height="20" viewBox="0 0 20 20" fill="none" xmlns="http://www.w3.org/2000/svg">
<path fill-rule="evenodd" clip-rule="evenodd" d="M9.99999 2.29163C9.19457 2.29163 8.54166 2.94454 8.54166 3.74996C8.54166 4.55537 9.19457 5.20829 9.99999 5.20829C10.8054 5.20829 11.4583 4.55537 11.4583 3.74996C11.4583 2.94454 10.8054 2.29163 9.99999 2.29163ZM7.29166 3.74996C7.29166 2.25419 8.50422 1.04163 9.99999 1.04163C11.4958 1.04163 12.7083 2.25419 12.7083 3.74996C12.7083 4.47724 12.4217 5.13757 11.9551 5.62411C13.4645 6.29951 14.5606 7.73286 14.7593 9.44004C15.97 9.7103 16.875 10.7911 16.875 12.0833C16.875 12.8106 16.5884 13.4709 16.1219 13.9574C17.7936 14.7055 18.9583 16.3834 18.9583 18.3333C18.9583 18.6785 18.6785 18.9583 18.3333 18.9583C17.9882 18.9583 17.7083 18.6785 17.7083 18.3333C17.7083 16.3814 16.1293 14.7983 14.179 14.7916L14.1667 14.7917L14.1543 14.7916C12.204 14.7983 10.625 16.3814 10.625 18.3333C10.625 18.6353 10.4108 18.8873 10.1259 18.9456C10.0853 18.9539 10.0431 18.9583 9.99999 18.9583C9.65481 18.9583 9.37499 18.6785 9.37499 18.3333C9.37499 16.3816 7.79632 14.7986 5.8463 14.7916L5.83334 14.7917L5.82098 14.7916C3.87065 14.7983 2.29166 16.3814 2.29166 18.3333C2.29166 18.6785 2.01183 18.9583 1.66666 18.9583C1.32148 18.9583 1.04166 18.6785 1.04166 18.3333C1.04166 16.3834 2.20639 14.7055 3.87808 13.9574C3.41163 13.4709 3.125 12.8106 3.125 12.0833C3.125 10.7911 4.02998 9.71029 5.24073 9.44004C5.43945 7.73287 6.53553 6.29953 8.04485 5.62413C7.57833 5.13759 7.29166 4.47725 7.29166 3.74996ZM5.82682 10.625C5.82899 10.625 5.83117 10.6251 5.83335 10.6251C5.83552 10.6251 5.8377 10.625 5.83987 10.625C6.64228 10.6285 7.29167 11.2801 7.29167 12.0833C7.29167 12.8852 6.64444 13.536 5.84387 13.5416L5.83332 13.5416L5.82238 13.5416C5.02201 13.5357 4.375 12.8851 4.375 12.0833C4.375 11.2801 5.0244 10.6285 5.82682 10.625ZM6.49963 9.45758C6.76071 7.7591 8.22848 6.45839 10 6.45839C11.7715 6.45839 13.2393 7.75909 13.5004 9.45758C12.3268 9.75446 11.4583 10.8175 11.4583 12.0833C11.4583 12.8106 11.745 13.4709 12.2114 13.9574C11.2781 14.3751 10.5028 15.0826 10 15.9654C9.4972 15.0826 8.7219 14.3751 7.78858 13.9574C8.25503 13.4709 8.54167 12.8106 8.54167 12.0833C8.54167 10.8175 7.67322 9.75447 6.49963 9.45758ZM14.1602 10.625C13.3577 10.6285 12.7083 11.2801 12.7083 12.0833C12.7083 12.8852 13.3556 13.536 14.1561 13.5416L14.1667 13.5416L14.1772 13.5416C14.9778 13.536 15.625 12.8852 15.625 12.0833C15.625 11.2801 14.9756 10.6285 14.1732 10.625C14.171 10.625 14.1689 10.6251 14.1667 10.6251C14.1645 10.6251 14.1623 10.625 14.1602 10.625Z" fill="#333333"/>
</svg>
