<svg width="20" height="20" viewBox="0 0 20 20" fill="none" xmlns="http://www.w3.org/2000/svg">
<path fill-rule="evenodd" clip-rule="evenodd" d="M16.3631 1.12033C16.6649 0.952697 17.0454 1.06141 17.213 1.36315L16.6667 1.66668C17.213 1.36315 17.2132 1.36342 17.2133 1.36369L17.2137 1.36432L17.2145 1.36579L17.2166 1.36969L17.2228 1.38121C17.2278 1.39054 17.2345 1.40316 17.2427 1.41899C17.259 1.45063 17.2813 1.49513 17.3082 1.55185C17.362 1.66522 17.4343 1.82771 17.5137 2.03411C17.6723 2.44647 17.8604 3.03702 17.9857 3.76361C18.2367 5.21931 18.2354 7.22585 17.2356 9.4253C17.0928 9.73954 16.7223 9.87849 16.408 9.73566C16.0938 9.59282 15.9548 9.22229 16.0977 8.90805C16.9729 6.9825 16.9716 5.23905 16.7539 3.976C16.6448 3.34321 16.4814 2.8322 16.347 2.48284C16.2799 2.30838 16.2203 2.17497 16.1789 2.08766C16.1582 2.04403 16.1421 2.012 16.1318 1.99219L16.1211 1.97176L16.1195 1.96866C15.953 1.66717 16.0619 1.28768 16.3631 1.12033ZM7.91666 1.87502C5.96065 1.87502 4.37499 3.46068 4.37499 5.41668C4.37499 7.3727 5.96065 8.95835 7.91666 8.95835C9.87267 8.95835 11.4583 7.3727 11.4583 5.41668C11.4583 3.46068 9.87267 1.87502 7.91666 1.87502ZM5.62499 5.41668C5.62499 4.15103 6.651 3.12502 7.91666 3.12502C9.18231 3.12502 10.2083 4.15103 10.2083 5.41668C10.2083 6.68234 9.18231 7.70835 7.91666 7.70835C6.651 7.70835 5.62499 6.68234 5.62499 5.41668ZM14.309 3.05381C14.1546 2.74508 13.7792 2.61994 13.4705 2.7743L13.1897 3.61034L13.1934 3.61819C13.1975 3.62682 13.2044 3.64214 13.2137 3.6638C13.2322 3.70717 13.2598 3.77567 13.2912 3.86654C13.3543 4.04865 13.432 4.3181 13.484 4.65311C13.5878 5.32224 13.5882 6.24484 13.1715 7.26334C13.0408 7.58282 13.1939 7.94776 13.5134 8.07845C13.8328 8.20915 14.1978 8.05611 14.3285 7.73663C14.8493 6.46346 14.8497 5.30273 14.7192 4.46144C14.654 4.04125 14.5559 3.69872 14.4724 3.45765C14.4307 3.33693 14.3923 3.24105 14.3632 3.17292C14.3487 3.13884 14.3364 3.11164 14.3271 3.09168L14.3156 3.0672L14.3116 3.05911L14.3102 3.05611L14.3095 3.05487L14.3093 3.05432C14.3091 3.05406 14.309 3.05381 13.75 3.33332L14.309 3.05381ZM8.86082 11.0417H6.97249C6.06238 11.0417 5.34113 11.0417 4.75978 11.0892C4.16529 11.1378 3.66226 11.2391 3.20294 11.4731C2.45813 11.8526 1.85258 12.4582 1.47309 13.203C1.23906 13.6623 1.13772 14.1653 1.08915 14.7598C1.04165 15.3412 1.04165 16.0624 1.04166 16.9725L1.04166 17.5C1.04166 17.8452 1.32148 18.125 1.66666 18.125H14.1667C14.5118 18.125 14.7917 17.8452 14.7917 17.5V16.9726V16.9725C14.7917 16.0624 14.7917 15.3412 14.7442 14.7598C14.6956 14.1653 14.5943 13.6623 14.3602 13.203C13.9807 12.4582 13.3752 11.8526 12.6303 11.4731C12.171 11.2391 11.668 11.1378 11.0735 11.0892C10.4922 11.0417 9.77094 11.0417 8.86082 11.0417ZM2.58685 13.7705C2.8465 13.2609 3.26083 12.8465 3.77042 12.5869C4.02415 12.4576 4.34439 12.3773 4.86156 12.335C5.38605 12.2922 6.05626 12.2917 6.99999 12.2917H8.83332C9.77705 12.2917 10.4473 12.2922 10.9717 12.335C11.4889 12.3773 11.8092 12.4576 12.0629 12.5869C12.5725 12.8466 12.9868 13.2609 13.2465 13.7705C13.3758 14.0242 13.4561 14.3444 13.4983 14.8616C13.5393 15.3626 13.5415 15.9967 13.5417 16.875H2.29166C2.29178 15.9967 2.29406 15.3626 2.335 14.8616C2.37725 14.3444 2.45757 14.0242 2.58685 13.7705Z" fill="#333333"/>
</svg>
