<svg width="20" height="20" viewBox="0 0 20 20" fill="none" xmlns="http://www.w3.org/2000/svg">
<path fill-rule="evenodd" clip-rule="evenodd" d="M3.125 3.33333C3.125 3.21827 3.21827 3.125 3.33333 3.125H14.1667C14.2817 3.125 14.375 3.21827 14.375 3.33333V7.91559C14.375 7.91595 14.375 7.91632 14.375 7.91669L14.375 8.75001L12.5689 7.39543C12.0281 6.98986 11.2795 7.00909 10.7603 7.44175L9.09755 8.82737L7.22473 7.12483L7.22471 7.1248C6.67306 6.62327 5.83206 6.61866 5.27488 7.11386L5.27485 7.11389L3.125 9.02489V7.91669V3.33333ZM14.375 10.3125L11.8189 8.39543C11.7417 8.33751 11.6347 8.34025 11.5605 8.40206L10.0314 9.67631L11.2538 10.7876C11.5092 11.0197 11.528 11.415 11.2958 11.6704C11.0636 11.9258 10.6683 11.9447 10.4129 11.7125L6.38387 8.04973L6.38384 8.04971C6.30509 7.9781 6.18497 7.97738 6.10531 8.04814L6.10528 8.04817L3.125 10.6973V11.25V14.1667C3.125 14.2817 3.21827 14.375 3.33333 14.375H14.1667C14.2817 14.375 14.375 14.2817 14.375 14.1667V11.2511C14.375 11.2508 14.375 11.2504 14.375 11.25L14.375 10.3125ZM15.625 11.25L15.625 14.1667C15.625 14.9721 14.9721 15.625 14.1667 15.625H3.33333C2.52792 15.625 1.875 14.9721 1.875 14.1667V11.25V10.4203V10.4136V7.91669V3.33333C1.875 2.52792 2.52792 1.875 3.33333 1.875H14.1667C14.9721 1.875 15.625 2.52792 15.625 3.33333L15.625 7.91669L15.625 9.99349V10.0075L15.625 11.25ZM18.125 5C18.125 4.65482 17.8452 4.375 17.5 4.375C17.1548 4.375 16.875 4.65482 16.875 5V16.25C16.875 16.5952 16.5952 16.875 16.25 16.875H5C4.65482 16.875 4.375 17.1548 4.375 17.5C4.375 17.8452 4.65482 18.125 5 18.125H16.25C17.2856 18.125 18.125 17.2856 18.125 16.25V5Z" fill="#333333"/>
</svg>
