<svg width="20" height="20" viewBox="0 0 20 20" fill="none" xmlns="http://www.w3.org/2000/svg">
<path fill-rule="evenodd" clip-rule="evenodd" d="M1.04169 3.33337C1.04169 2.9882 1.32151 2.70837 1.66669 2.70837H18.3334C18.6785 2.70837 18.9584 2.9882 18.9584 3.33337V15.8334C18.9584 16.1786 18.6785 16.4584 18.3334 16.4584H12.3422L10.442 18.3586C10.1979 18.6027 9.80216 18.6027 9.55808 18.3586L7.6578 16.4584H1.66669C1.32151 16.4584 1.04169 16.1786 1.04169 15.8334V3.33337ZM2.29169 3.95837V15.2084H7.91669C8.08245 15.2084 8.24142 15.2742 8.35863 15.3914L10 17.0328L11.6414 15.3914C11.7586 15.2742 11.9176 15.2084 12.0834 15.2084H17.7084V3.95837H2.29169ZM10 8.95837C10.3452 8.95837 10.625 9.2382 10.625 9.58337V13.3334C10.625 13.6786 10.3452 13.9584 10 13.9584C9.65484 13.9584 9.37501 13.6786 9.37501 13.3334V9.58337C9.37501 9.2382 9.65484 8.95837 10 8.95837ZM10.625 6.66668C10.625 6.32151 10.3452 6.04168 10 6.04168C9.65484 6.04168 9.37501 6.32151 9.37501 6.66668V7.08335C9.37501 7.42853 9.65484 7.70835 10 7.70835C10.3452 7.70835 10.625 7.42853 10.625 7.08335V6.66668Z" fill="#333333"/>
</svg>
