<svg width="20" height="20" viewBox="0 0 20 20" fill="none" xmlns="http://www.w3.org/2000/svg">
<path fill-rule="evenodd" clip-rule="evenodd" d="M2.70834 2.50008C2.70834 1.69467 3.36126 1.04175 4.16668 1.04175H12.5C12.5848 1.04175 12.6656 1.05861 12.7392 1.08917C12.81 1.11846 12.8765 1.16131 12.9348 1.21773L12.943 1.22582L17.1075 5.39038L17.1181 5.40116C17.1733 5.45879 17.2154 5.5244 17.2443 5.59418C17.2748 5.66787 17.2917 5.74867 17.2917 5.83341V17.5001C17.2917 18.3055 16.6388 18.9584 15.8333 18.9584H4.16668C3.36127 18.9584 2.70834 18.3055 2.70834 17.5001V2.50008ZM13.125 5.20841V3.17563L15.1578 5.20841H13.125ZM4.16668 2.29175C4.05162 2.29175 3.95834 2.38502 3.95834 2.50008V17.5001C3.95834 17.6151 4.05161 17.7084 4.16668 17.7084H15.8333C15.9484 17.7084 16.0417 17.6152 16.0417 17.5001V6.45841H12.5C12.1548 6.45841 11.875 6.17859 11.875 5.83341V2.29175H4.16668ZM5.83334 8.12506C5.48817 8.12506 5.20834 8.40488 5.20834 8.75006V14.1667C5.20834 14.5119 5.48817 14.7917 5.83334 14.7917H11.4553C11.8005 14.7917 12.0803 14.5119 12.0803 14.1667V13.618L13.9425 14.3335C14.1347 14.4073 14.3509 14.3818 14.5206 14.2652C14.6903 14.1486 14.7917 13.9559 14.7917 13.7501V9.16672C14.7917 8.96085 14.6903 8.76818 14.5206 8.65159C14.3509 8.53501 14.1347 8.50947 13.9425 8.5833L12.0803 9.29873V8.75006C12.0803 8.40488 11.8005 8.12506 11.4553 8.12506H5.83334ZM6.45834 13.5417V9.37506H10.8303V10.2084C10.8303 10.4143 10.9317 10.6069 11.1014 10.7235C11.2711 10.8401 11.4873 10.8656 11.6795 10.7918L13.5417 10.0764V12.8404L11.6795 12.125C11.4873 12.0511 11.2711 12.0767 11.1014 12.1933C10.9317 12.3098 10.8303 12.5025 10.8303 12.7084V13.5417H6.45834Z" fill="#333333"/>
</svg>
