<svg width="20" height="20" viewBox="0 0 20 20" fill="none" xmlns="http://www.w3.org/2000/svg">
<path fill-rule="evenodd" clip-rule="evenodd" d="M15.6242 1.18379C15.3801 0.939713 14.9844 0.939714 14.7403 1.18379L1.77669 14.1474C1.65947 14.2646 1.59362 14.4236 1.59363 14.5894L1.59374 18.1248C1.59375 18.47 1.87356 18.7498 2.21872 18.7498L5.75415 18.7499C5.91992 18.7499 6.07889 18.684 6.19611 18.5668L15.6184 9.14455C15.6203 9.14265 15.6223 9.14073 15.6242 9.1388C15.6261 9.13687 15.628 9.13493 15.6299 9.13298L19.1597 5.60319C19.2769 5.48598 19.3428 5.32701 19.3428 5.16125C19.3428 4.99549 19.2769 4.83652 19.1597 4.71931L15.6242 1.18379ZM15.1822 7.81294L17.8339 5.16125L15.1822 2.50961L12.5306 5.1613L15.1822 7.81294ZM11.6467 6.04518L2.84364 14.8482L2.84372 17.4998L5.49529 17.4999L14.2983 8.69682L11.6467 6.04518Z" fill="#333333"/>
</svg>
